<svg width="490" height="256" viewBox="0 0 490 256" fill="none" xmlns="http://www.w3.org/2000/svg">
<g clip-path="url(#clip0_11_3)">
<path d="M131.899 196.685C137.603 196.67 146.375 196.389 151.756 196.777C149.6 203.228 147.027 209.863 144.63 216.256C138.146 216.408 131.197 216.285 124.678 216.282C127.052 209.805 129.67 203.183 131.899 196.685Z" fill="white"/>
<path d="M53.6465 196.685C59.3512 196.67 68.1225 196.389 73.5037 196.777C71.3479 203.228 68.7747 209.863 66.3782 216.256C59.8938 216.408 52.9451 216.285 46.4254 216.282C48.7993 209.805 51.4182 203.183 53.6465 196.685Z" fill="white"/>
<path d="M319.508 4.20203C320.29 2.13713 322.255 0.754782 324.463 0.732851C340.393 0.574642 356.537 0.711262 372.452 0.71628L389.731 0.70959C390.499 0.70928 391.44 0.698404 392.448 0.689106C395.898 0.657278 398.091 3.91912 396.909 7.16044C395.789 10.2314 394.508 13.7707 393.615 16.4029C392.847 18.6669 394.15 20.2975 396.541 20.3054C399.009 20.3136 401.498 20.3067 403.975 20.311C407.731 20.3176 410.279 24.1566 409.043 27.7034C408.496 29.2718 407.957 30.851 407.408 32.4211C406.144 36.0342 408.792 39.9722 412.62 39.9742L436.043 39.9864C439.802 39.9884 442.422 43.7852 441.163 47.3272C440.605 48.8951 440.047 50.4726 439.483 52.0282C438.178 55.6257 440.797 59.5721 444.624 59.5755C445.932 59.5766 447.24 59.5762 448.548 59.5741C452.298 59.5681 454.911 63.3175 453.627 66.8409C450.648 75.0139 447.763 83.3085 444.759 91.4192C443.464 94.9168 446.01 98.6454 449.74 98.6268C451.163 98.6197 452.596 98.6134 454.013 98.6145C457.71 98.6174 460.148 102.356 458.873 105.826C455.706 114.446 452.873 123.362 449.511 131.824C448.306 134.855 450.585 137.944 453.846 137.949L459.342 137.958C463.018 137.964 465.582 141.593 464.316 145.044C460.398 155.723 456.063 166.782 452.696 177.146C450.513 182.244 448.775 188.299 446.742 193.547C445.978 195.518 444.04 196.742 441.926 196.721C437.96 196.682 433.852 196.651 429.871 196.689C427.455 196.712 425.357 198.381 424.581 200.669C423.724 203.195 422.593 206.244 421.519 209.091C420.212 212.559 422.753 216.228 426.459 216.229L469.916 216.236C473.649 216.237 476.228 219.97 474.936 223.473C474.252 225.326 473.572 227.192 472.906 229.048C471.692 232.431 474.154 235.922 477.748 235.871C479.502 235.846 481.293 235.816 483.017 235.807C486.537 235.788 488.801 239.239 487.573 242.538C486.414 245.652 485.233 248.845 484.19 251.874C483.431 254.076 481.375 255.587 479.046 255.587H20.1123C16.4206 255.587 13.8779 251.945 15.1814 248.491C16.8509 244.067 18.6248 239.321 19.5623 236.029C15.6996 235.947 11.7173 235.956 7.75435 235.977C4.01235 235.997 1.42374 232.263 2.72534 228.754C8.65773 212.764 14.2604 196.528 20.1818 180.546C20.9602 178.445 22.9726 177.065 25.2129 177.101C29.1144 177.162 34.2203 177.243 37.9005 177.127C39.8946 177.065 41.5799 175.753 42.2835 173.886C43.798 169.868 45.4721 165.387 46.851 161.306C47.6018 159.084 49.6658 157.551 52.011 157.548L67.8788 157.532C69.7012 157.559 76.3545 157.507 81.4284 157.547C84.6437 157.573 86.4293 160.402 85.2912 163.409C84.437 165.666 83.5474 168.073 82.7245 170.374C81.537 173.694 83.9317 177.095 87.4575 177.144C96.4011 177.271 110.927 177.365 116.95 177.102C118.622 177.029 119.91 175.938 120.476 174.363L125.247 161.094C126.011 158.967 128.028 157.56 130.287 157.579C134.19 157.61 140.015 157.64 143.474 157.534C145.264 157.478 147.367 157.517 149.157 157.579C151.49 157.659 154.879 157.647 158.033 157.625C161.807 157.599 164.36 161.418 163.123 164.983C162.664 166.306 162.223 167.578 161.819 168.667C161.642 169.144 161.38 169.837 161.083 170.631C159.873 173.867 162.169 177.088 165.624 177.128C182.708 177.327 200.594 177.172 217.479 177.056C218.893 172.965 220.404 168.828 221.917 164.709C223.189 161.248 220.649 157.58 216.961 157.571C215.595 157.567 214.23 157.565 212.865 157.566C209.065 157.568 206.429 153.719 207.73 150.149C209.258 145.958 210.759 141.637 212.185 137.723C218.765 118.262 227.082 98.3214 233.535 78.9019C235.67 73.8472 237.387 68.1843 239.382 62.8682C240.144 60.8389 242.114 59.5474 244.282 59.5573C248.265 59.5753 252.249 59.574 256.233 59.553C258.61 59.5405 260.682 57.9465 261.475 55.7048C262.826 51.8864 264.564 47.7675 265.941 43.8372C266.732 41.5795 268.824 39.9842 271.216 39.9829L286.784 39.9743C286.828 39.9743 286.871 39.9632 286.909 39.942C286.968 39.9097 287.011 39.8572 287.031 39.7935C288.496 35.0925 290.827 28.9839 292.772 23.7663C293.534 21.7198 295.454 20.3232 297.638 20.3318C302.932 20.3526 308.895 20.6369 313.611 20.2151C313.698 20.2074 313.779 20.1741 313.847 20.1196C313.921 20.0594 313.973 19.9802 313.997 19.8874C314.929 16.2734 317.586 9.27144 319.508 4.20203ZM120.476 174.363C119.91 175.938 118.622 177.029 116.95 177.102C110.927 177.365 96.4011 177.271 87.4575 177.144C83.9317 177.095 81.537 173.694 82.7245 170.374C83.5474 168.073 84.437 165.666 85.2912 163.409C86.4293 160.402 84.6437 157.573 81.4284 157.547C76.3545 157.507 69.7012 157.559 67.8788 157.532L52.011 157.548C49.6658 157.551 47.6018 159.084 46.851 161.306C45.4721 165.387 43.798 169.868 42.2835 173.886C41.5799 175.753 39.8946 177.065 37.9005 177.127C34.2203 177.243 29.1144 177.162 25.2129 177.101C22.9726 177.065 20.9602 178.445 20.1818 180.546C14.2604 196.528 8.65773 212.764 2.72534 228.754C1.42374 232.263 4.01235 235.997 7.75435 235.977C11.7173 235.956 15.6996 235.947 19.5623 236.029C36.1734 235.806 53.2036 235.981 69.8488 235.981L177.374 235.983C195.346 235.983 213.628 236.142 231.615 235.975C233.785 235.955 235.728 234.619 236.494 232.589C237.645 229.539 238.771 226.397 239.881 223.28C241.101 219.856 238.627 216.243 234.992 216.239C233.378 216.237 231.75 216.244 230.134 216.252C226.525 216.272 223.985 212.787 225.211 209.392C225.878 207.548 226.576 205.665 227.265 203.811C228.551 200.352 226.001 196.698 222.31 196.69L217.877 196.68C214.199 196.671 211.636 193.038 212.895 189.582C214.419 185.4 215.972 181.213 217.479 177.056C200.594 177.172 182.708 177.327 165.624 177.128C162.169 177.088 159.873 173.867 161.083 170.631C161.38 169.837 161.642 169.144 161.819 168.667C162.223 167.578 162.664 166.306 163.123 164.983C164.36 161.418 161.807 157.599 158.033 157.625C154.879 157.647 151.49 157.659 149.157 157.579C147.367 157.517 145.264 157.478 143.474 157.534C140.015 157.64 134.19 157.61 130.287 157.579C128.028 157.56 126.011 158.967 125.247 161.094L120.476 174.363Z" fill="#2F7BFF"/>
<path d="M125.247 161.094C126.011 158.968 128.028 157.561 130.287 157.579C134.19 157.611 140.015 157.641 143.474 157.534C145.264 157.479 147.367 157.518 149.157 157.579C151.49 157.659 154.879 157.648 158.033 157.626C161.807 157.599 164.36 161.418 163.123 164.983C162.664 166.306 162.223 167.578 161.819 168.667C161.642 169.144 161.38 169.838 161.083 170.631C159.873 173.867 162.169 177.088 165.624 177.128C180.141 177.297 195.238 177.211 209.807 177.11C213.526 177.084 216.126 180.77 214.844 184.262C214.193 186.034 213.541 187.809 212.895 189.582C211.636 193.038 214.199 196.672 217.877 196.68L222.31 196.69C226.001 196.699 228.551 200.352 227.265 203.812C226.576 205.665 225.878 207.548 225.211 209.392C223.985 212.787 226.525 216.273 230.134 216.253C231.75 216.244 233.378 216.237 234.992 216.239C238.627 216.243 241.101 219.857 239.881 223.28C238.771 226.398 237.645 229.539 236.494 232.589C235.728 234.62 233.785 235.955 231.615 235.975C213.628 236.142 195.346 235.984 177.374 235.984L69.8488 235.981C53.2036 235.981 36.1734 235.806 19.5622 236.03C15.6996 235.948 11.7173 235.956 7.75435 235.978C4.01235 235.998 1.42374 232.263 2.72534 228.755C8.65773 212.764 14.2604 196.528 20.1818 180.546C20.9602 178.445 22.9726 177.065 25.2129 177.101C29.1144 177.163 34.2203 177.243 37.9005 177.128C39.8946 177.065 41.5799 175.754 42.2835 173.887C43.798 169.868 45.4721 165.387 46.851 161.306C47.6018 159.084 49.6658 157.551 52.011 157.549L67.8788 157.532C69.7012 157.56 76.3545 157.507 81.4284 157.547C84.6437 157.573 86.4293 160.402 85.2912 163.41C84.437 165.667 83.5474 168.074 82.7245 170.374C81.537 173.694 83.9317 177.095 87.4575 177.145C96.4011 177.271 110.927 177.365 116.95 177.102C118.622 177.029 119.91 175.938 120.476 174.364L125.247 161.094ZM124.849 216.256L140.594 216.233C142.896 216.23 144.933 214.75 145.7 212.579C147.318 208.006 149.082 203.481 150.698 198.91C151.063 197.88 150.37 196.73 149.278 196.708C143.71 196.594 137.008 196.602 131.849 196.776C129.731 203.228 127.203 209.863 124.849 216.256ZM46.4866 216.256L62.5045 216.237C64.5978 216.234 66.5086 215.014 67.2586 213.059C68.3194 210.295 69.2753 207.336 70.2616 204.45C71.516 200.78 68.8404 196.696 64.9618 196.698C61.166 196.7 57.3704 196.729 53.5751 196.785C51.722 202.227 48.6468 211.011 46.4866 216.256Z" fill="#2F7BFF"/>
<path d="M67.8779 157.532C69.7003 157.559 76.3536 157.507 81.4275 157.547C84.6428 157.573 86.4284 160.402 85.2903 163.409C84.0449 166.7 82.724 170.31 81.6449 173.443C80.9114 175.573 78.9601 177.068 76.7077 177.106C69.3774 177.229 61.9299 176.964 54.6272 177.095C52.6075 177.131 50.5305 177.145 48.45 177.128C44.8318 177.099 42.4497 173.467 43.7108 170.076C44.7981 167.152 45.8949 164.133 46.8501 161.306C47.6009 159.084 49.6649 157.551 52.0101 157.548L67.8779 157.532Z" fill="#045AEF"/>
<path d="M125.247 161.094C126.012 158.968 128.028 157.561 130.288 157.579C134.191 157.611 140.015 157.641 143.474 157.534C145.264 157.479 147.368 157.518 149.158 157.579C151.49 157.659 154.88 157.648 158.034 157.626C161.807 157.599 164.36 161.418 163.123 164.983C162.664 166.306 162.224 167.578 161.82 168.667C161.495 169.541 160.888 171.141 160.299 172.749C159.401 175.199 156.936 176.966 154.327 177.003C152.583 177.027 150.84 177.065 150.006 177.066L132.057 177.099C130.26 177.101 128.381 177.125 126.496 177.119C122.995 177.108 120.736 173.641 121.921 170.346L125.247 161.094Z" fill="#045AEF"/>
<path d="M32.7679 200.274C33.5351 198.104 35.5813 196.638 37.8831 196.649L53.5365 196.722C51.4186 203.174 48.8904 209.809 46.536 216.202C42.6376 216.295 38.5684 216.284 34.5295 216.262C30.8312 216.241 28.2662 212.564 29.5507 209.096C30.6393 206.157 31.7305 203.208 32.7679 200.274Z" fill="#141116"/>
<path d="M111.08 200.329C111.847 198.159 113.893 196.692 116.195 196.703L131.849 196.777C129.731 203.228 127.202 209.863 124.848 216.256C120.95 216.349 116.88 216.339 112.841 216.317C109.143 216.296 106.578 212.619 107.863 209.151C108.951 206.212 110.043 203.263 111.08 200.329Z" fill="#141116"/>
<path d="M212.866 157.565C209.066 157.567 206.429 153.718 207.731 150.148C208.672 147.567 209.603 144.936 210.512 142.381C211.449 139.75 214.326 137.978 217.118 138.023C219.277 138.058 221.839 138.054 224.236 138.038C227.897 138.014 230.432 141.566 229.158 144.999C228.464 146.87 227.763 148.748 227.081 150.614C225.835 154.023 228.38 157.561 232.009 157.566L237.063 157.574C240.585 157.579 243.082 160.92 241.864 164.225C241.129 166.22 240.342 168.244 239.583 170.251C238.312 173.613 240.824 177.07 244.418 177.06C246.002 177.056 247.587 177.052 249.17 177.052C252.842 177.053 255.365 180.701 254.099 184.148C251.025 192.517 247.867 201.002 244.89 209.376C243.682 212.772 246.151 216.311 249.755 216.295C251.221 216.289 252.688 216.278 254.15 216.275C257.942 216.266 260.454 220.214 259.161 223.779C258.571 225.405 257.982 227.084 257.41 228.726C256.188 232.234 258.804 235.945 262.518 235.946L381.83 235.985L437.603 235.98C448.485 235.98 459.675 236.121 470.516 235.874C474.021 235.977 478.73 235.829 483.018 235.806C486.537 235.787 488.802 239.238 487.574 242.537C486.415 245.651 485.234 248.844 484.191 251.873C483.432 254.075 481.376 255.586 479.047 255.586H20.1132C16.4215 255.586 13.8788 251.944 15.1823 248.49C16.285 245.568 17.4331 242.506 18.3557 239.815C19.121 237.583 21.179 236.006 23.5384 235.982C38.8837 235.831 54.5298 235.98 69.8497 235.98L177.375 235.982C195.347 235.982 213.629 236.141 231.616 235.974C233.786 235.954 235.728 234.618 236.495 232.588C237.645 229.538 238.772 226.396 239.882 223.279C241.102 219.855 238.628 216.242 234.993 216.238C233.379 216.236 231.751 216.243 230.135 216.252C226.525 216.271 223.986 212.786 225.212 209.391C225.879 207.547 226.577 205.664 227.266 203.81C228.552 200.351 226.002 196.697 222.311 196.689L217.878 196.679C214.2 196.67 211.637 193.037 212.896 189.581C214.42 185.4 215.973 181.212 217.48 177.055C218.894 172.964 220.405 168.827 221.918 164.709C223.19 161.247 220.649 157.579 216.962 157.57C215.596 157.566 214.231 157.565 212.866 157.565Z" fill="#045AEF"/>
<path d="M319.508 4.20204C320.29 2.13713 322.255 0.754782 324.463 0.732851C340.392 0.574642 356.537 0.711262 372.452 0.71628L389.731 0.70959C390.498 0.70928 391.44 0.698404 392.448 0.689106C395.898 0.657278 398.091 3.91912 396.909 7.16044C396.033 9.56365 395.057 12.2537 394.246 14.5714C393.194 17.5797 389.713 20.4341 386.526 20.413C385.708 20.4075 385 20.4005 384.548 20.4007L368.621 20.4031C351.615 20.402 334.585 20.4213 317.579 20.3915C315.536 20.3879 314.369 18.4743 315.011 16.5347C316.241 12.8148 318.078 7.97356 319.508 4.20204Z" fill="#045AEF"/>
<path d="M385.424 200.172C386.208 198.061 388.236 196.677 390.488 196.689C400.011 196.741 409.621 196.567 419.149 196.65C422.555 196.679 424.892 199.852 423.745 203.06C422.594 206.282 421.207 209.915 420.105 212.825C419.328 214.876 417.392 216.268 415.199 216.307C406.072 216.471 396.414 216.373 387.12 216.312C383.431 216.287 380.862 212.628 382.121 209.162C383.212 206.161 384.313 203.165 385.424 200.172Z" fill="#045AEF"/>
<path d="M239.382 62.8687C240.144 60.8394 242.114 59.548 244.282 59.5578C247.072 59.5704 249.862 59.5736 252.651 59.5671C256.349 59.5585 258.959 63.2047 257.711 66.686C256.618 69.7356 255.51 72.7801 254.387 75.8192C253.613 77.9153 251.614 79.3107 249.379 79.328C246.454 79.3506 242.545 79.3727 239.313 79.3094C236.189 79.2483 234.568 76.4288 235.626 73.489C236.889 69.9789 238.076 66.3495 239.382 62.8687Z" fill="#045AEF"/>
<path d="M265.942 43.8381C266.733 41.5804 268.825 39.9851 271.217 39.9838L280.261 39.9788C283.656 39.9769 285.959 43.0432 284.764 46.2209C284.592 46.6788 284.432 47.1036 284.296 47.4751L281.102 56.1618C280.336 58.2452 278.361 59.6397 276.141 59.6489C273.143 59.6614 270.145 59.6538 267.147 59.6259C263.654 59.5934 261.234 56.2631 262.472 52.9967C263.616 49.9801 264.885 46.8536 265.942 43.8381Z" fill="#045AEF"/>
<path d="M305.48 20.4364C309.358 20.4725 312.314 24.3565 311.01 28.0088C309.974 30.9078 308.901 33.8405 307.836 36.6334C307.055 38.6815 305.081 40.0164 302.889 40.0284C299.956 40.0444 296.891 40.0718 293.903 40.0532C290.408 40.0314 288.039 36.643 289.222 33.3547C290.371 30.1597 291.637 26.8113 292.772 23.7663C293.535 21.7199 295.454 20.3233 297.638 20.3319C300.169 20.3418 302.852 20.412 305.48 20.4364Z" fill="#045AEF"/>
<path d="M431.754 180.453C432.523 178.39 434.525 177.075 436.726 177.079C439.435 177.084 442.148 177.06 444.861 177.056C448.625 177.05 451.168 180.922 449.941 184.481C448.882 187.551 447.857 190.67 446.742 193.547C445.979 195.518 444.04 196.742 441.926 196.721C439.323 196.696 436.658 196.674 434.007 196.672C430.139 196.67 427.397 192.704 428.689 189.057C429.703 186.193 430.698 183.283 431.754 180.453Z" fill="#045AEF"/>
<path d="M324.918 43.1928C325.685 41.2136 327.615 39.9609 329.738 39.9621L377.34 39.9869C381.045 39.9888 383.634 43.6756 382.389 47.1656C381.746 48.967 381.098 50.7777 380.446 52.5715C379.196 56.0093 381.623 59.6974 385.281 59.7262C386.736 59.7377 388.212 59.739 389.672 59.7323C393.402 59.7154 396.053 63.3799 394.773 66.8832C394.123 68.6635 393.469 70.4428 392.822 72.223C391.569 75.6679 394.13 79.269 397.795 79.264C399.307 79.2619 400.821 79.2609 402.332 79.2639C405.998 79.2709 408.517 82.9121 407.272 86.36L405.395 91.5542C404.138 95.0341 406.714 98.6797 410.414 98.6441C411.981 98.629 413.575 98.617 415.128 98.6167C418.717 98.6161 421.1 102.166 419.874 105.538L402.213 154.081C401.448 156.184 399.453 157.587 397.214 157.567C392.208 157.523 386.114 157.418 381.869 157.629C381.52 157.646 381.172 157.631 380.823 157.606C379.19 157.489 375.921 157.547 374.631 157.548L369.44 157.554C365.705 157.559 363.085 153.814 364.324 150.29C365.835 145.993 367.405 141.541 368.921 138.022C369.145 137.251 369.403 136.542 369.67 135.787C373.22 125.784 376.98 115.843 380.586 105.856C381.84 102.381 379.24 98.736 375.544 98.7337C373.983 98.7327 372.421 98.7281 370.859 98.7199C367.275 98.7012 364.776 95.2187 365.994 91.8489C366.646 90.0466 367.324 88.2193 367.997 86.4123C369.287 82.9493 366.729 79.2943 363.034 79.2945L332.429 79.296C326.164 79.2942 318.178 79.0554 312.038 79.3825C311.992 79.3849 311.948 79.4022 311.912 79.4318C311.855 79.4791 311.786 79.4956 311.714 79.4778C310.378 79.1465 304.769 79.145 299.85 79.2013C296.169 79.2435 293.576 75.6678 294.819 72.2027C295.901 69.1852 297.006 66.1759 298.135 63.175C298.95 61.0074 301.079 59.6297 303.394 59.6865C307.219 59.7803 311.663 59.7769 315.462 59.7076C317.589 59.6688 319.473 58.3405 320.201 56.3417C321.767 52.0458 323.309 47.3404 324.918 43.1928Z" fill="#004ACA"/>
<path d="M324.917 43.1928C325.685 41.2136 327.615 39.9609 329.737 39.9621L377.339 39.9869C381.045 39.9888 383.634 43.6756 382.388 47.1656C381.745 48.967 381.098 50.7777 380.445 52.5715C379.195 56.0093 381.623 59.6974 385.28 59.7262C386.735 59.7377 388.212 59.739 389.672 59.7323C393.401 59.7154 396.052 63.3799 394.773 66.8832C394.122 68.6635 393.469 70.4428 392.822 72.223C391.569 75.6679 394.129 79.269 397.795 79.264C399.307 79.2619 400.821 79.2609 402.332 79.2639C405.998 79.2709 408.517 82.9121 407.271 86.36L405.395 91.5542C404.138 95.0341 406.714 98.6797 410.414 98.6441C411.981 98.629 413.575 98.617 415.128 98.6167C418.716 98.6161 421.1 102.166 419.873 105.538L402.213 154.081C401.447 156.184 399.452 157.587 397.214 157.567C394.643 157.544 391.786 157.506 389.039 157.502C385.346 157.497 382.65 153.872 383.948 150.414C389.505 135.632 394.613 120.593 400.141 105.783C401.429 102.333 398.959 98.6387 395.277 98.6368C393.832 98.6361 392.375 98.6421 390.926 98.6499C387.182 98.6702 384.594 94.9258 385.872 91.4063C386.47 89.7604 387.063 88.108 387.653 86.4584C388.898 82.9758 386.317 79.2999 382.619 79.2935L378.452 79.2864C374.688 79.28 372.094 75.4775 373.381 71.9395C374.007 70.219 374.627 68.482 375.239 66.7569C376.472 63.2779 373.885 59.6194 370.193 59.6194L326.812 59.6188C323.044 59.6188 320.412 55.8035 321.656 52.2473C322.731 49.1753 323.808 46.0515 324.917 43.1928Z" fill="#045AEF"/>
<path d="M298.135 63.1751C298.95 61.0075 301.079 59.6298 303.394 59.6866C305.976 59.7499 308.84 59.7689 311.597 59.7533C315.23 59.7327 317.736 63.1445 316.46 66.5466C314.484 71.8163 312.082 78.1693 311.971 79.3083C311.966 79.364 311.942 79.4071 311.899 79.4428C311.85 79.4833 311.792 79.4978 311.731 79.482C310.425 79.1466 304.79 79.1449 299.85 79.2014C296.169 79.2435 293.576 75.6679 294.819 72.2028C295.901 69.1853 297.006 66.176 298.135 63.1751Z" fill="#045AEF"/>
<path d="M264.309 102.393C265.073 100.2 267.117 98.6808 269.44 98.6509C272.425 98.6124 276.391 98.5678 279.607 98.5997C282.633 98.6297 284.268 101.26 283.231 104.103L266.342 150.412C265.072 153.895 267.649 157.581 271.356 157.583L275.281 157.585C279.119 157.588 281.796 161.556 280.553 165.187C280.079 166.571 279.61 167.967 279.131 169.351C277.863 173.016 280.549 177.069 284.427 177.074L287.513 177.077C291.447 177.081 294.19 181.269 292.863 184.972C292.348 186.41 291.833 187.887 291.329 189.336C290.094 192.883 292.738 196.68 296.493 196.68L339.255 196.686C343.147 196.687 345.855 200.772 344.552 204.439C343.547 207.268 342.542 210.234 341.566 212.927C340.82 214.982 338.85 216.312 336.663 216.31L289.198 216.266C285.495 216.263 282.919 212.583 284.184 209.102L286.094 203.843C287.36 200.36 284.779 196.678 281.073 196.679L276.98 196.68C273.182 196.681 270.569 192.818 271.878 189.253C272.483 187.606 273.08 185.943 273.673 184.289C274.926 180.791 272.332 177.085 268.617 177.082L264.813 177.079C260.942 177.076 258.265 173.042 259.588 169.403C260.161 167.827 260.733 166.204 261.28 164.629C262.478 161.177 259.894 157.587 256.241 157.587L251.136 157.586C247.645 157.585 245.246 154.333 246.453 151.057C247.736 147.577 249.198 143.807 249.912 141.847L259.866 114.518C261.263 110.682 262.899 106.437 264.309 102.393Z" fill="#004ACA"/>
<path d="M315.984 121.644C316.778 119.602 318.806 118.35 320.996 118.381C323.903 118.423 326.818 118.396 329.728 118.381C333.25 118.362 335.709 121.727 334.496 125.035C333.769 127.02 332.998 129.029 332.244 131.022C330.957 134.425 333.486 137.972 337.124 137.975L355.427 137.99C357.202 137.99 359.178 137.964 361.177 137.947C364.916 137.916 367.391 141.725 366.118 145.241C365.515 146.905 364.915 148.61 364.324 150.291C363.084 153.814 365.705 157.56 369.44 157.555L374.631 157.548C376.015 157.548 376.021 157.892 374.638 157.901C371.081 157.925 366.924 157.889 364.221 157.819C362.691 157.78 361.272 158.763 360.786 160.214C359.322 164.59 357.535 169.018 355.955 173.416C355.173 175.593 353.128 177.085 350.814 177.085L322.689 177.084C319.102 177.084 316.578 173.632 317.821 170.267C318.522 168.371 319.257 166.444 319.977 164.525C321.252 161.123 318.717 157.585 315.083 157.584L310.594 157.584C306.882 157.584 304.318 153.897 305.616 150.419C307.182 146.224 308.758 141.933 310.014 137.989C312.119 132.811 313.927 126.932 315.984 121.644Z" fill="#045AEF"/>
<path d="M308.781 141.693C309.54 139.495 311.593 137.989 313.918 137.988L322.031 137.988C325.757 137.988 328.338 141.707 327.052 145.204C326.411 146.946 325.773 148.69 325.139 150.434C323.876 153.907 326.453 157.57 330.148 157.57L350.559 157.573C351.315 157.573 353.611 157.555 355.92 157.558C358.997 157.562 360.829 160.186 359.788 163.081C358.553 166.518 357.19 169.976 355.955 173.415C355.173 175.592 353.128 177.084 350.814 177.084L322.689 177.084C319.102 177.084 316.578 173.631 317.821 170.266C318.522 168.37 319.257 166.443 319.977 164.525C321.252 161.122 318.717 157.584 315.083 157.584L310.594 157.584C306.882 157.583 304.318 153.896 305.616 150.418C306.703 147.507 307.795 144.549 308.781 141.693Z" fill="#004ACA"/>
<path d="M271.313 82.949C272.093 80.7463 274.207 79.3015 276.544 79.3176C281.718 79.3531 286.985 79.1902 292.158 79.3589C292.196 79.3601 292.234 79.352 292.268 79.3351C292.3 79.3195 292.33 79.3113 292.365 79.3111C294.296 79.2991 301.169 79.1334 306.244 79.1835C309.291 79.2136 310.913 81.8875 309.828 84.7353C308.504 88.2078 306.943 92.3538 305.875 95.4752C305.189 97.4819 303.466 98.8913 301.345 98.9284C296.533 99.0125 288.264 99.0223 285.722 98.9299C285.324 98.9154 284.943 98.8386 284.548 98.7913C282.625 98.5614 277.276 98.5681 272.66 98.613C269.37 98.645 266.913 95.1247 268.039 92.0329C269.147 89.0113 270.239 85.9833 271.313 82.949Z" fill="#045AEF"/>
<path d="M292.279 79.3294C292.303 79.3176 292.325 79.3114 292.352 79.3112C294.267 79.2998 301.158 79.1333 306.243 79.1835C309.29 79.2136 310.912 81.8875 309.826 84.7353C308.662 87.7915 307.313 91.3693 306.278 94.3113C305.384 96.8555 302.808 98.6366 300.111 98.644C299.225 98.6465 298.402 98.6549 297.796 98.6544L292.829 98.6599C289.12 98.664 286.536 94.9798 287.804 91.4943L292.191 79.4277C292.206 79.3848 292.238 79.3496 292.279 79.3294Z" fill="#004ACA"/>
<path d="M182.075 59.5747L194.234 59.5628C197.823 59.5592 200.37 63.0194 199.173 66.4031C197.099 72.2618 194.64 78.5464 192.703 83.8758L175.105 132.209C172.635 138.987 169.648 146.674 167.206 153.741C166.417 156.024 164.224 157.582 161.808 157.597C158.533 157.618 154.129 157.671 150.84 157.619C148.22 157.577 146.888 155.454 147.75 152.979C149.668 147.466 152.072 141.335 153.912 136.277L165.068 105.694C166.302 102.313 163.904 98.7276 160.305 98.6971C158.001 98.6775 155.627 98.6867 153.369 98.7172C150.821 98.7516 149.006 96.1469 149.796 93.7249C153.076 83.665 157.585 73.4677 160.932 63.3427C161.674 61.098 163.751 59.5447 166.115 59.5486L182.075 59.5747Z" fill="#2F7BFF"/>
<path d="M160.933 63.3427C161.674 61.098 163.752 59.5447 166.116 59.5486L172.441 59.5589C176.598 59.5657 180.01 64.6419 178.6 68.5526L171.121 89.2221C170.681 90.433 169.713 93.269 168.85 95.6261C168.118 97.6248 166.179 98.8103 164.051 98.7576C160.672 98.6739 156.883 98.6697 153.37 98.7172C150.822 98.7516 149.007 96.1469 149.797 93.7249C153.077 83.665 157.586 73.4677 160.933 63.3427Z" fill="#045AEF"/>
<path d="M82.5639 63.111C83.3341 60.9893 85.3482 59.5726 87.6053 59.5754L105.503 59.5975C108.856 59.5733 112.209 59.5592 115.562 59.5554C119.26 59.5511 121.826 63.2283 120.562 66.7041L101.963 117.836L92.2516 144.482C91.2973 147.127 90.1632 150.112 89.1206 153C88.1606 155.66 85.2819 157.589 82.4543 157.557C80.1242 157.531 77.3227 157.53 74.7715 157.533C71.2802 157.538 68.9026 154.286 70.1278 151.017C70.3965 150.3 70.6536 149.616 70.8805 148.996L76.4038 133.899C79.5761 125.166 83.0207 114.992 86.4944 105.853C87.8007 102.417 85.4154 98.694 81.739 98.6848C80.2445 98.681 78.7226 98.6894 77.2257 98.7035C73.5524 98.738 70.9397 95.1623 72.1565 91.6962C75.4949 82.1867 79.1309 72.5678 82.5639 63.111Z" fill="#2F7BFF"/>
<path d="M83.258 61.1926C83.6089 60.2201 84.5316 59.5714 85.5655 59.5727L105.285 59.597C105.317 59.5971 105.322 59.642 105.292 59.6496C104.338 59.878 103.499 60.1988 103.117 61.1024C100.845 66.4753 93.7331 86.3782 90.5909 95.1462C89.7974 97.3605 87.6487 98.7669 85.2969 98.721C82.7327 98.671 79.938 98.6778 77.2256 98.7033C73.5524 98.7378 70.9396 95.1621 72.1564 91.6961C75.7208 81.5427 79.6245 71.2649 83.258 61.1926Z" fill="#045AEF"/>
</g>
<defs>
<clipPath id="clip0_11_3">
<rect width="490" height="256" fill="white"/>
</clipPath>
</defs>
</svg>
