<svg width="655" height="341" viewBox="0 0 655 341" fill="none" xmlns="http://www.w3.org/2000/svg">
<g clip-path="url(#clip0_68_442)">
<path d="M426.688 4.88613C427.733 2.12819 430.357 0.281856 433.306 0.252563C454.579 0.0412722 476.139 0.223735 497.393 0.230437L520.468 0.221502C521.493 0.221089 522.75 0.206566 524.096 0.194149C528.703 0.151635 531.633 4.50792 530.054 8.83691C528.559 12.9384 526.847 17.6654 525.655 21.181C524.629 24.2048 526.37 26.3827 529.563 26.3933C532.858 26.4042 536.182 26.395 539.49 26.4008C544.506 26.4096 547.91 31.5367 546.258 36.2737C545.528 38.3685 544.809 40.4778 544.075 42.575C542.387 47.4005 545.923 52.6598 551.036 52.6624L582.315 52.6788C587.335 52.6815 590.834 57.7522 589.153 62.4829C588.409 64.577 587.664 66.684 586.91 68.7618C585.167 73.5666 588.665 78.8371 593.776 78.8416C595.523 78.8431 597.269 78.8425 599.016 78.8397C604.024 78.8316 607.513 83.8392 605.798 88.5449C601.821 99.4607 597.967 110.539 593.956 121.372C592.226 126.043 595.627 131.023 600.608 130.998C602.508 130.988 604.422 130.98 606.313 130.981C611.251 130.985 614.507 135.978 612.804 140.613C608.575 152.125 604.792 164.033 600.301 175.335C598.692 179.383 601.736 183.509 606.091 183.516L613.43 183.528C618.339 183.535 621.764 188.382 620.073 192.991C614.841 207.255 609.051 222.024 604.555 235.867C601.64 242.675 599.319 250.761 596.604 257.771C595.584 260.404 592.996 262.038 590.172 262.01C584.876 261.959 579.39 261.917 574.074 261.968C570.847 261.998 568.045 264.228 567.009 267.284C565.865 270.657 564.354 274.729 562.92 278.531C561.174 283.163 564.567 288.063 569.518 288.064L627.551 288.074C632.537 288.075 635.982 293.061 634.256 297.74C633.342 300.215 632.434 302.707 631.544 305.186C629.924 309.704 633.212 314.367 638.011 314.298C640.353 314.264 642.745 314.225 645.047 314.212C649.748 314.187 652.772 318.797 651.133 323.202C649.584 327.362 648.008 331.626 646.614 335.671C645.601 338.613 642.855 340.631 639.744 340.631H26.8596C21.9292 340.631 18.5332 335.766 20.274 331.153C22.5036 325.245 24.8725 318.906 26.1245 314.51C20.9663 314.4 15.6483 314.411 10.3562 314.44C5.35856 314.467 1.90127 309.479 3.6395 304.794C11.5619 283.437 19.044 261.752 26.9518 240.407C27.9914 237.601 30.6792 235.758 33.6714 235.806C38.8814 235.888 45.6994 235.995 50.6139 235.842C53.2773 235.758 55.5281 234.006 56.4678 231.513C58.4903 226.146 60.7259 220.161 62.5674 214.711C63.57 211.743 66.3268 209.695 69.459 209.692L90.6491 209.67C93.0828 209.707 101.968 209.636 108.744 209.69C113.038 209.725 115.423 213.503 113.903 217.52C112.762 220.534 111.574 223.749 110.475 226.822C108.889 231.256 112.087 235.798 116.796 235.864C128.74 236.033 148.138 236.158 156.181 235.808C158.414 235.71 160.134 234.253 160.89 232.15L167.261 214.427C168.283 211.587 170.975 209.708 173.993 209.732C179.205 209.775 186.983 209.815 191.602 209.672C193.993 209.599 196.803 209.651 199.193 209.733C202.309 209.839 206.834 209.824 211.046 209.795C216.085 209.759 219.495 214.859 217.843 219.621C217.23 221.388 216.642 223.087 216.102 224.541C215.866 225.179 215.516 226.105 215.12 227.165C213.503 231.487 216.57 235.789 221.184 235.842C243.998 236.108 267.884 235.901 290.433 235.746C292.321 230.282 294.339 224.757 296.36 219.256C298.059 214.633 294.666 209.735 289.741 209.722C287.918 209.717 286.095 209.715 284.272 209.716C279.198 209.719 275.676 204.578 277.414 199.81C279.454 194.213 281.459 188.441 283.363 183.214C292.151 157.222 303.258 130.59 311.875 104.654C314.726 97.9026 317.019 90.3395 319.684 83.2395C320.701 80.529 323.333 78.8041 326.228 78.8173C331.547 78.8414 336.867 78.8395 342.187 78.8115C345.362 78.7948 348.129 76.6659 349.188 73.6717C350.992 68.5721 353.313 63.0712 355.153 57.822C356.209 54.8066 359.003 52.6759 362.198 52.6741L382.988 52.6627C383.046 52.6627 383.103 52.6478 383.154 52.6195C383.232 52.5764 383.29 52.5062 383.317 52.4212C385.273 46.1426 388.387 37.9842 390.983 31.0157C392.002 28.2824 394.565 26.4171 397.482 26.4285C404.552 26.4564 412.515 26.836 418.814 26.2727C418.929 26.2623 419.038 26.2179 419.128 26.1451C419.228 26.0647 419.297 25.959 419.329 25.835C420.573 21.0083 424.122 11.6567 426.688 4.88613ZM160.89 232.15C160.134 234.253 158.414 235.71 156.181 235.808C148.138 236.158 128.74 236.033 116.796 235.864C112.087 235.798 108.889 231.256 110.475 226.822C111.574 223.749 112.762 220.534 113.903 217.52C115.423 213.503 113.038 209.725 108.744 209.69C101.968 209.636 93.0828 209.707 90.6491 209.67L69.459 209.692C66.3268 209.695 63.57 211.743 62.5674 214.711C60.7259 220.161 58.4903 226.146 56.4678 231.513C55.5281 234.006 53.2773 235.758 50.6139 235.842C45.6994 235.995 38.8814 235.888 33.6714 235.806C30.6792 235.758 27.9914 237.601 26.9518 240.407C19.044 261.752 11.5619 283.437 3.6395 304.794C1.90127 309.479 5.35856 314.467 10.3562 314.44C15.6483 314.411 20.9663 314.4 26.1245 314.51C48.3079 314.211 71.051 314.445 93.28 314.445L236.875 314.448C260.875 314.448 285.291 314.659 309.311 314.437C312.209 314.41 314.804 312.626 315.827 309.915C317.364 305.841 318.868 301.645 320.351 297.482C321.98 292.909 318.675 288.083 313.821 288.078C311.666 288.075 309.492 288.084 307.335 288.096C302.514 288.123 299.121 283.467 300.76 278.933C301.65 276.47 302.582 273.955 303.502 271.48C305.219 266.859 301.813 261.98 296.884 261.969L290.965 261.955C286.053 261.944 282.631 257.091 284.312 252.476C286.346 246.891 288.421 241.298 290.433 235.746C267.884 235.901 243.998 236.108 221.184 235.842C216.57 235.789 213.503 231.487 215.12 227.165C215.516 226.105 215.866 225.179 216.102 224.541C216.642 223.087 217.23 221.388 217.843 219.621C219.495 214.859 216.085 209.759 211.046 209.795C206.834 209.824 202.309 209.839 199.193 209.733C196.803 209.651 193.993 209.599 191.602 209.672C186.983 209.815 179.205 209.775 173.993 209.732C170.975 209.708 168.283 211.587 167.261 214.427L160.89 232.15Z" fill="#FF6590"/>
<path d="M167.261 214.428C168.283 211.588 170.975 209.709 173.993 209.733C179.205 209.775 186.983 209.815 191.602 209.673C193.993 209.6 196.803 209.651 199.193 209.733C202.309 209.84 206.834 209.825 211.046 209.796C216.085 209.76 219.495 214.86 217.843 219.622C217.23 221.389 216.642 223.088 216.102 224.542C215.866 225.179 215.516 226.106 215.12 227.166C213.503 231.487 216.57 235.789 221.184 235.843C240.571 236.068 260.731 235.953 280.187 235.818C285.155 235.784 288.626 240.707 286.914 245.37C286.045 247.738 285.175 250.108 284.312 252.477C282.631 257.092 286.053 261.945 290.965 261.956L296.884 261.969C301.813 261.981 305.219 266.86 303.502 271.48C302.582 273.956 301.65 276.471 300.76 278.934C299.121 283.468 302.514 288.123 307.335 288.097C309.492 288.085 311.666 288.076 313.821 288.078C318.675 288.084 321.98 292.91 320.351 297.483C318.868 301.646 317.364 305.842 315.827 309.916C314.804 312.627 312.209 314.41 309.311 314.437C285.291 314.66 260.875 314.449 236.875 314.449L93.28 314.445C71.051 314.445 48.3079 314.212 26.1245 314.511C20.9663 314.401 15.6483 314.412 10.3562 314.441C5.35856 314.468 1.90127 309.48 3.6395 304.794C11.5619 283.438 19.044 261.753 26.9518 240.408C27.9914 237.602 30.6792 235.759 33.6714 235.807C38.8814 235.889 45.6994 235.996 50.6139 235.842C53.2773 235.759 55.5281 234.007 56.4678 231.513C58.4903 226.147 60.7259 220.162 62.5674 214.711C63.57 211.744 66.3268 209.696 69.459 209.693L90.6491 209.671C93.0828 209.708 101.968 209.637 108.744 209.691C113.038 209.725 115.423 213.504 113.903 217.521C112.762 220.535 111.574 223.75 110.475 226.822C108.889 231.257 112.087 235.799 116.796 235.865C128.74 236.033 148.138 236.159 156.181 235.808C158.414 235.711 160.134 234.253 160.89 232.15L167.261 214.428ZM170.285 278.494C168.566 283.154 172.007 288.093 176.974 288.086L187.756 288.071C190.831 288.066 193.551 286.089 194.576 283.19C196.736 277.082 199.093 271.038 201.251 264.933C201.737 263.558 200.813 262.023 199.354 261.993C193.61 261.875 186.963 261.855 181.06 261.959C178.067 262.012 175.464 263.978 174.486 266.807C173.143 270.691 171.72 274.604 170.285 278.494ZM65.8991 278.144C64.1533 282.915 67.6653 288.094 72.7463 288.088L83.4713 288.075C86.2672 288.072 88.8193 286.442 89.821 283.831C91.2376 280.14 92.5141 276.188 93.8313 272.333C95.5065 267.431 91.9331 261.977 86.7529 261.98C83.3602 261.982 79.9675 262 76.575 262.034C73.56 262.064 70.9015 264 69.9135 266.849C68.6884 270.381 67.286 274.353 65.8991 278.144Z" fill="#FF6590"/>
<path d="M90.647 209.67C93.0806 209.707 101.966 209.636 108.741 209.69C113.036 209.725 115.42 213.503 113.901 217.52C112.237 221.915 110.473 226.735 109.032 230.921C108.053 233.766 105.446 235.763 102.438 235.813C92.6491 235.977 82.7035 235.623 72.9512 235.798C70.2542 235.846 67.4806 235.865 64.7024 235.842C59.8702 235.803 56.6887 230.953 58.3727 226.424C59.8248 222.518 61.2896 218.486 62.5653 214.711C63.5679 211.743 66.3246 209.695 69.4569 209.692L90.647 209.67Z" fill="#FF2260"/>
<path d="M167.261 214.428C168.282 211.588 170.975 209.709 173.993 209.733C179.205 209.775 186.983 209.815 191.602 209.673C193.993 209.6 196.803 209.651 199.193 209.733C202.308 209.84 206.834 209.825 211.046 209.796C216.085 209.76 219.495 214.86 217.843 219.622C217.23 221.389 216.642 223.088 216.102 224.542C215.669 225.709 214.858 227.846 214.071 229.993C212.872 233.266 209.58 235.626 206.095 235.675C203.767 235.708 201.44 235.758 200.325 235.76L176.356 235.803C173.956 235.807 171.446 235.838 168.93 235.83C164.254 235.816 161.237 231.185 162.819 226.785L167.261 214.428Z" fill="#FF2260"/>
<path d="M43.7306 266.735C44.7482 263.875 47.4425 261.946 50.4776 261.908C54.2267 261.861 58.4145 261.797 62.3488 261.812C67.0108 261.831 70.0837 266.395 68.5345 270.792C66.998 275.153 65.3168 279.805 63.7897 283.783C62.7781 286.419 60.2608 288.152 57.438 288.183C53.7118 288.223 49.8983 288.208 46.1079 288.185C41.1546 288.153 37.7214 283.21 39.4327 278.562C40.8833 274.622 42.3313 270.667 43.7306 266.735Z" fill="#141116"/>
<path d="M148.356 266.791C149.374 263.91 152.078 261.954 155.133 261.914C158.882 261.866 163.043 261.8 166.959 261.813C171.597 261.829 174.67 266.346 173.113 270.714C171.585 275.003 169.987 279.305 168.412 283.553C167.394 286.297 164.807 288.151 161.881 288.18C158.193 288.215 154.435 288.202 150.696 288.181C145.757 288.154 142.331 283.243 144.046 278.611C145.505 274.673 146.967 270.722 148.356 266.791Z" fill="#141116"/>
<path d="M284.27 209.716C279.196 209.718 275.674 204.577 277.412 199.81C278.669 196.362 279.912 192.848 281.127 189.436C282.378 185.922 286.22 183.556 289.949 183.616C292.833 183.662 296.253 183.656 299.453 183.635C304.343 183.603 307.729 188.347 306.028 192.932C305.1 195.432 304.164 197.939 303.253 200.432C301.59 204.985 304.988 209.71 309.835 209.717L316.583 209.727C321.287 209.734 324.622 214.196 322.996 218.611C322.014 221.274 320.963 223.978 319.95 226.658C318.252 231.148 321.607 235.766 326.407 235.752C328.521 235.746 330.638 235.741 332.751 235.742C337.656 235.743 341.026 240.615 339.335 245.219C335.23 256.397 331.012 267.729 327.036 278.913C325.423 283.449 328.72 288.175 333.534 288.154C335.491 288.146 337.45 288.132 339.402 288.127C344.466 288.115 347.822 293.388 346.095 298.149C345.307 300.321 344.52 302.564 343.756 304.757C342.124 309.441 345.618 314.398 350.579 314.399L509.913 314.451L584.396 314.444C598.928 314.444 613.873 314.633 628.35 314.303C633.03 314.44 639.318 314.243 645.045 314.212C649.746 314.187 652.77 318.796 651.13 323.202C649.582 327.361 648.006 331.626 646.612 335.671C645.599 338.612 642.853 340.631 639.742 340.631H26.8577C21.9273 340.631 18.5313 335.766 20.2721 331.153C21.7447 327.251 23.2779 323.161 24.5101 319.567C25.5321 316.586 28.2808 314.479 31.432 314.448C51.9248 314.246 72.8191 314.444 93.2781 314.444L236.873 314.448C260.873 314.448 285.289 314.659 309.309 314.436C312.208 314.409 314.802 312.626 315.825 309.914C317.362 305.841 318.866 301.645 320.349 297.482C321.978 292.909 318.673 288.083 313.819 288.077C311.664 288.075 309.49 288.084 307.333 288.096C302.512 288.122 299.12 283.467 300.758 278.933C301.648 276.47 302.58 273.955 303.5 271.479C305.217 266.859 301.812 261.98 296.882 261.968L290.963 261.955C286.052 261.944 282.629 257.091 284.31 252.476C286.344 246.891 288.419 241.298 290.431 235.745C292.319 230.282 294.338 224.757 296.358 219.256C298.057 214.633 294.664 209.735 289.739 209.721C287.916 209.717 286.093 209.715 284.27 209.716Z" fill="#FF2260"/>
<path d="M426.688 4.88613C427.733 2.12819 430.357 0.281856 433.306 0.252563C454.579 0.0412722 476.138 0.223735 497.393 0.230437L520.468 0.221502C521.493 0.221089 522.75 0.206566 524.095 0.194149C528.703 0.151635 531.632 4.50792 530.054 8.83691C528.883 12.0467 527.581 15.6397 526.498 18.7353C525.093 22.753 520.444 26.5652 516.188 26.5369C515.095 26.5297 514.149 26.5203 513.547 26.5206L492.276 26.5237C469.565 26.5223 446.824 26.5481 424.113 26.5082C421.384 26.5034 419.825 23.9479 420.682 21.3575C422.325 16.3893 424.778 9.9234 426.688 4.88613Z" fill="#FF2260"/>
<path d="M514.717 266.62C515.764 263.801 518.473 261.952 521.481 261.968C534.198 262.037 547.031 261.804 559.755 261.915C564.305 261.955 567.426 266.192 565.894 270.477C564.357 274.779 562.504 279.632 561.032 283.519C559.995 286.258 557.409 288.117 554.481 288.17C542.292 288.388 529.395 288.257 516.983 288.175C512.057 288.143 508.625 283.256 510.307 278.626C511.763 274.619 513.233 270.617 514.717 266.62Z" fill="#FF2260"/>
<path d="M319.684 83.2397C320.701 80.5292 323.332 78.8043 326.227 78.8175C329.953 78.8344 333.678 78.8385 337.403 78.8299C342.342 78.8184 345.827 83.688 344.161 88.3376C342.701 92.4106 341.221 96.4767 339.722 100.536C338.688 103.335 336.018 105.199 333.034 105.222C329.128 105.252 323.907 105.282 319.591 105.197C315.419 105.116 313.254 101.35 314.667 97.4241C316.354 92.7361 317.939 87.8886 319.684 83.2397Z" fill="#FF2260"/>
<path d="M355.153 57.822C356.21 54.8066 359.003 52.6758 362.199 52.6741L374.276 52.6674C378.81 52.6649 381.885 56.7601 380.289 61.0041C380.059 61.6158 379.846 62.1831 379.665 62.6794L375.399 74.2809C374.376 77.0636 371.738 78.9261 368.774 78.9385C364.77 78.9552 360.766 78.9449 356.763 78.9077C352.098 78.8643 348.866 74.4165 350.52 70.0541C352.047 66.0252 353.742 61.8495 355.153 57.822Z" fill="#FF2260"/>
<path d="M407.953 26.5686C413.132 26.6168 417.08 31.804 415.338 36.682C413.956 40.5537 412.522 44.4705 411.1 48.2007C410.057 50.9362 407.42 52.7191 404.493 52.7352C400.576 52.7566 396.484 52.7931 392.493 52.7683C387.826 52.7392 384.662 48.2139 386.241 43.8221C387.776 39.555 389.468 35.0829 390.983 31.0161C392.001 28.2828 394.565 26.4175 397.482 26.429C400.861 26.4422 404.444 26.5359 407.953 26.5686Z" fill="#FF2260"/>
<path d="M576.585 240.283C577.612 237.528 580.286 235.772 583.226 235.777C586.844 235.784 590.466 235.751 594.088 235.746C599.115 235.739 602.512 240.909 600.874 245.662C599.459 249.763 598.09 253.929 596.601 257.771C595.581 260.404 592.993 262.038 590.169 262.011C586.693 261.977 583.134 261.947 579.595 261.945C574.429 261.942 570.767 256.646 572.491 251.775C573.846 247.949 575.175 244.063 576.585 240.283Z" fill="#FF2260"/>
<path d="M433.911 56.9616C434.936 54.3182 437.514 52.645 440.349 52.6465L503.918 52.6796C508.867 52.6822 512.324 57.606 510.661 62.2672C509.803 64.6732 508.938 67.0917 508.066 69.4877C506.397 74.079 509.639 79.0046 514.524 79.0431C516.466 79.0584 518.438 79.0601 520.387 79.0512C525.368 79.0286 528.909 83.9227 527.2 88.6016C526.332 90.9794 525.459 93.3561 524.594 95.7337C522.922 100.335 526.341 105.144 531.237 105.137C533.256 105.135 535.277 105.133 537.295 105.137C542.191 105.147 545.555 110.01 543.892 114.614L541.386 121.552C539.707 126.2 543.147 131.068 548.089 131.021C550.181 131.001 552.309 130.985 554.383 130.984C559.175 130.984 562.359 135.725 560.721 140.229L537.136 205.061C536.114 207.87 533.449 209.743 530.46 209.717C523.774 209.658 515.636 209.519 509.968 209.8C509.501 209.823 509.036 209.802 508.57 209.769C506.389 209.613 502.024 209.691 500.301 209.691L493.37 209.7C488.381 209.706 484.881 204.704 486.536 199.999C488.555 194.259 490.651 188.313 492.676 183.613C492.975 182.584 493.319 181.636 493.676 180.629C498.416 167.269 503.439 153.992 508.253 140.653C509.929 136.011 506.456 131.144 501.52 131.141C499.435 131.139 497.349 131.133 495.264 131.122C490.478 131.097 487.14 126.446 488.767 121.946C489.637 119.538 490.543 117.098 491.442 114.684C493.165 110.059 489.748 105.178 484.813 105.178L443.942 105.18C435.576 105.178 424.911 104.859 416.711 105.296C416.649 105.299 416.591 105.322 416.543 105.362C416.467 105.425 416.375 105.447 416.279 105.423C414.494 104.98 407.005 104.978 400.435 105.054C395.519 105.11 392.055 100.334 393.715 95.7066C395.161 91.6765 396.637 87.6574 398.144 83.6495C399.232 80.7543 402.076 78.9142 405.168 78.9901C410.276 79.1153 416.21 79.1107 421.283 79.0182C424.124 78.9664 426.64 77.1922 427.613 74.5227C429.704 68.7852 431.763 62.5009 433.911 56.9616Z" fill="#CF003B"/>
<path d="M433.912 56.9616C434.937 54.3182 437.515 52.645 440.35 52.6465L503.919 52.6796C508.868 52.6822 512.326 57.606 510.662 62.2672C509.804 64.6732 508.939 67.0917 508.068 69.4877C506.398 74.079 509.64 79.0046 514.525 79.0431C516.468 79.0584 518.439 79.0601 520.388 79.0512C525.369 79.0286 528.91 83.9227 527.201 88.6016C526.333 90.9794 525.46 93.3561 524.596 95.7337C522.923 100.335 526.342 105.144 531.238 105.137C533.257 105.135 535.278 105.133 537.296 105.137C542.192 105.147 545.556 110.01 543.893 114.614L541.387 121.552C539.708 126.2 543.148 131.068 548.09 131.021C550.182 131.001 552.31 130.985 554.384 130.984C559.176 130.984 562.36 135.725 560.722 140.229L537.137 205.061C536.115 207.87 533.451 209.743 530.461 209.717C527.028 209.687 523.212 209.635 519.545 209.63C514.613 209.624 511.012 204.782 512.746 200.164C520.166 180.421 526.988 160.336 534.371 140.555C536.09 135.948 532.791 131.014 527.873 131.011C525.944 131.01 524 131.018 522.065 131.029C517.064 131.056 513.608 126.055 515.315 121.355C516.113 119.156 516.905 116.949 517.693 114.746C519.356 110.095 515.909 105.185 510.97 105.177L505.407 105.167C500.379 105.159 496.914 100.08 498.633 95.3551C499.469 93.0571 500.298 90.737 501.115 88.4329C502.762 83.7865 499.306 78.9005 494.376 78.9004L436.443 78.8996C431.411 78.8996 427.896 73.8041 429.558 69.0546C430.993 64.9517 432.432 60.7797 433.912 56.9616Z" fill="#FF2260"/>
<path d="M398.144 83.6492C399.232 80.7541 402.076 78.914 405.168 78.9898C408.615 79.0744 412.439 79.0998 416.121 79.0789C420.974 79.0514 424.321 83.608 422.617 88.1518C419.978 95.19 416.77 103.675 416.622 105.196C416.614 105.271 416.583 105.328 416.525 105.376C416.46 105.43 416.383 105.449 416.301 105.428C414.557 104.98 407.032 104.978 400.435 105.053C395.519 105.11 392.055 100.334 393.715 95.7064C395.161 91.6763 396.637 87.6571 398.144 83.6492Z" fill="#FF2260"/>
<path d="M352.972 136.027C353.993 133.098 356.723 131.069 359.826 131.029C363.812 130.977 369.107 130.918 373.403 130.961C377.444 131.001 379.627 134.513 378.242 138.31L355.687 200.161C353.991 204.812 357.433 209.735 362.384 209.737L367.625 209.741C372.751 209.744 376.326 215.044 374.666 219.893C374.033 221.741 373.406 223.606 372.767 225.455C371.074 230.35 374.66 235.763 379.84 235.769L383.96 235.773C389.214 235.779 392.878 241.371 391.106 246.318C390.417 248.239 389.73 250.211 389.056 252.147C387.407 256.883 390.939 261.954 395.954 261.955L453.059 261.963C458.257 261.964 461.874 267.419 460.134 272.317C458.792 276.095 457.45 280.057 456.145 283.653C455.15 286.399 452.518 288.174 449.598 288.172L386.212 288.113C381.266 288.109 377.826 283.194 379.515 278.545L382.066 271.521C383.756 266.869 380.309 261.951 375.359 261.953L369.895 261.955C364.823 261.956 361.333 256.797 363.081 252.036C363.888 249.836 364.687 247.615 365.478 245.405C367.151 240.734 363.686 235.784 358.725 235.78L353.646 235.776C348.476 235.771 344.902 230.384 346.668 225.525C347.433 223.419 348.197 221.252 348.928 219.147C350.527 214.537 347.077 209.743 342.198 209.742L335.382 209.741C330.72 209.74 327.515 205.397 329.127 201.022C330.84 196.374 332.793 191.339 333.747 188.721L347.039 152.221C348.905 147.097 351.089 141.429 352.972 136.027Z" fill="#CF003B"/>
<path d="M421.981 161.738C423.042 159.011 425.75 157.339 428.676 157.381C432.557 157.436 436.45 157.401 440.335 157.38C445.04 157.355 448.323 161.85 446.704 166.267C445.732 168.919 444.703 171.602 443.696 174.264C441.977 178.809 445.355 183.545 450.213 183.549L474.656 183.57C477.026 183.57 479.665 183.535 482.334 183.513C487.328 183.472 490.633 188.558 488.933 193.254C488.128 195.476 487.326 197.753 486.537 199.999C484.882 204.705 488.382 209.707 493.37 209.7L500.302 209.692C502.15 209.691 502.159 210.15 500.311 210.163C495.561 210.195 490.009 210.147 486.4 210.054C484.357 210.001 482.462 211.314 481.813 213.252C479.857 219.097 477.47 225.01 475.361 230.884C474.317 233.792 471.585 235.784 468.495 235.784L430.936 235.784C426.146 235.784 422.775 231.172 424.435 226.678C425.371 224.146 426.353 221.572 427.313 219.01C429.017 214.465 425.63 209.74 420.777 209.74L414.784 209.74C409.826 209.74 406.402 204.815 408.135 200.17C410.227 194.567 412.332 188.835 414.008 183.569C416.819 176.653 419.234 168.801 421.981 161.738Z" fill="#FF2260"/>
<path d="M412.362 188.516C413.376 185.58 416.117 183.568 419.223 183.568L430.056 183.568C435.032 183.567 438.48 188.534 436.762 193.205C435.906 195.532 435.055 197.861 434.207 200.191C432.52 204.829 435.963 209.72 440.898 209.721L468.155 209.725C469.164 209.725 472.23 209.701 475.313 209.705C479.423 209.71 481.871 213.214 480.48 217.082C478.83 221.672 477.011 226.289 475.361 230.883C474.317 233.791 471.585 235.784 468.495 235.784L430.936 235.783C426.146 235.783 422.775 231.172 424.435 226.678C425.371 224.145 426.353 221.571 427.313 219.009C429.017 214.465 425.63 209.739 420.777 209.739L414.784 209.739C409.826 209.739 406.402 204.814 408.135 200.169C409.587 196.281 411.045 192.33 412.362 188.516Z" fill="#CF003B"/>
<path d="M362.326 110.059C363.368 107.117 366.191 105.187 369.312 105.209C376.221 105.256 383.255 105.039 390.163 105.264C390.214 105.266 390.265 105.255 390.311 105.232C390.353 105.211 390.393 105.2 390.44 105.2C393.019 105.184 402.197 104.963 408.974 105.03C413.044 105.07 415.209 108.641 413.76 112.444C411.993 117.082 409.908 122.619 408.482 126.788C407.566 129.469 405.264 131.351 402.432 131.401C396.005 131.513 384.964 131.526 381.569 131.402C381.037 131.383 380.529 131.281 380 131.217C377.433 130.91 370.29 130.919 364.126 130.979C359.731 131.022 356.45 126.32 357.953 122.191C359.433 118.156 360.891 114.111 362.326 110.059Z" fill="#FF2260"/>
<path d="M390.325 105.225C390.357 105.209 390.387 105.2 390.423 105.2C392.98 105.185 402.182 104.963 408.973 105.03C413.043 105.07 415.208 108.641 413.759 112.444C412.204 116.526 410.402 121.304 409.021 125.234C407.826 128.632 404.386 131.011 400.784 131.021C399.6 131.024 398.501 131.035 397.693 131.035L391.06 131.042C386.107 131.047 382.656 126.127 384.348 121.472L390.207 105.356C390.228 105.298 390.27 105.251 390.325 105.225Z" fill="#CF003B"/>
<path d="M243.153 78.841L259.39 78.825C264.184 78.8203 267.586 83.4415 265.987 87.9606C263.218 95.7856 259.934 104.179 257.347 111.297L233.845 175.85C230.547 184.903 226.559 195.169 223.297 204.607C222.243 207.656 219.314 209.738 216.087 209.758C211.714 209.785 205.833 209.857 201.441 209.787C197.942 209.731 196.164 206.895 197.314 203.59C199.876 196.227 203.086 188.038 205.543 181.283L220.442 140.437C222.09 135.921 218.887 131.133 214.081 131.092C211.003 131.066 207.834 131.078 204.818 131.119C201.416 131.165 198.992 127.686 200.047 124.451C204.427 111.016 210.449 97.3963 214.918 83.8737C215.909 80.8755 218.683 78.8009 221.841 78.8061L243.153 78.841Z" fill="#FF6590"/>
<path d="M214.918 83.8737C215.908 80.8755 218.683 78.8009 221.841 78.8061L230.285 78.8199C235.838 78.829 240.395 85.6085 238.512 90.8317L228.524 118.437C227.936 120.055 226.643 123.842 225.491 126.99C224.513 129.66 221.924 131.243 219.082 131.173C214.569 131.061 209.509 131.056 204.818 131.119C201.416 131.165 198.992 127.686 200.046 124.451C204.427 111.016 210.449 97.3963 214.918 83.8737Z" fill="#FF2260"/>
<path d="M110.259 83.563C111.288 80.7293 113.978 78.837 116.992 78.8407L140.893 78.8703C145.37 78.838 149.848 78.8192 154.326 78.814C159.265 78.8083 162.693 83.7193 161.004 88.3615L136.166 156.652L123.197 192.241C121.922 195.773 120.408 199.759 119.016 203.617C117.734 207.169 113.889 209.746 110.112 209.703C107.001 209.669 103.26 209.666 99.8536 209.671C95.1907 209.677 92.0151 205.335 93.6513 200.969C94.0103 200.011 94.3536 199.097 94.6566 198.268L102.033 178.105C106.269 166.442 110.869 152.853 115.508 140.649C117.253 136.059 114.067 131.087 109.157 131.074C107.162 131.069 105.13 131.081 103.131 131.099C98.2251 131.146 94.7356 126.37 96.3606 121.741C100.819 109.04 105.675 96.1934 110.259 83.563Z" fill="#FF6590"/>
<path d="M111.185 81.0007C111.654 79.7017 112.886 78.8354 114.267 78.8371L140.602 78.8696C140.644 78.8697 140.651 78.9296 140.61 78.9397C139.336 79.2449 138.216 79.6733 137.706 80.88C134.673 88.0556 125.174 114.638 120.978 126.348C119.918 129.306 117.048 131.184 113.907 131.123C110.483 131.056 106.752 131.065 103.13 131.099C98.2239 131.145 94.7344 126.37 96.3594 121.741C101.119 108.18 106.333 94.4531 111.185 81.0007Z" fill="#FF2260"/>
</g>
<defs>
<clipPath id="clip0_68_442">
<rect width="654.372" height="341" fill="white"/>
</clipPath>
</defs>
</svg>
